<?xml version="1.0" encoding="UTF-8" standalone="no"?>
<svg
   xmlns:dc="http://purl.org/dc/elements/1.1/"
   xmlns:cc="http://creativecommons.org/ns#"
   xmlns:rdf="http://www.w3.org/1999/02/22-rdf-syntax-ns#"
   xmlns:svg="http://www.w3.org/2000/svg"
   xmlns="http://www.w3.org/2000/svg"
   xmlns:sodipodi="http://sodipodi.sourceforge.net/DTD/sodipodi-0.dtd"
   xmlns:inkscape="http://www.inkscape.org/namespaces/inkscape"
   version="1.1"
   id="Capa_1"
   x="0px"
   y="0px"
   width="512px"
   height="512px"
   viewBox="0 0 446.969 446.969"
   style="enable-background:new 0 0 446.969 446.969;"
   xml:space="preserve"
   class=""
   sodipodi:docname="column.svg"
   inkscape:version="0.92.2 (5c3e80d, 2017-08-06)"><metadata
     id="metadata21"><rdf:RDF><cc:Work
         rdf:about=""><dc:format>image/svg+xml</dc:format><dc:type
           rdf:resource="http://purl.org/dc/dcmitype/StillImage" /><dc:title></dc:title></cc:Work></rdf:RDF></metadata><defs
     id="defs19" /><sodipodi:namedview
     pagecolor="#ffffff"
     bordercolor="#666666"
     borderopacity="1"
     objecttolerance="10"
     gridtolerance="10"
     guidetolerance="10"
     inkscape:pageopacity="0"
     inkscape:pageshadow="2"
     inkscape:window-width="1440"
     inkscape:window-height="837"
     id="namedview17"
     showgrid="false"
     inkscape:zoom="1.3085938"
     inkscape:cx="131.8209"
     inkscape:cy="256"
     inkscape:window-x="1432"
     inkscape:window-y="1016"
     inkscape:window-maximized="1"
     inkscape:current-layer="g14" /><g
     id="g14"><path
       style="fill:#c5c5c5;fill-opacity:1"
       inkscape:connector-curvature="0"
       id="path10"
       data-old_color="#C5C5C5"
       class="active-path"
       data-original="#000000"
       d="M 430.266,23.857 H 16.699 C 7.487,23.857 0,31.354 0,40.555 v 365.86 c 0,5.654 2.841,10.637 7.155,13.663 v 2.632 h 5.989 c 1.149,0.252 2.332,0.401 3.555,0.401 h 413.575 c 1.22,0 2.401,-0.149 3.545,-0.401 h 0.821 v -0.251 c 7.088,-1.938 12.328,-8.362 12.328,-16.044 V 40.561 c 10e-4,-9.207 -7.489,-16.704 -16.702,-16.704 z M 137.60777,408.396 H 17.462984 v -45.33 H 137.60677 v 45.33 z m 0,-66.62889 H 17.462984 v -47.01 H 137.60677 v 47.01 z m 0,-68.30289 H 17.462984 v -49.632 H 137.60677 v 49.632 z m 0,-70.92889 H 17.462984 v -53.687 H 137.60677 v 53.687 z m 0,-74.98489 H 17.462984 V 75.057437 H 137.60677 V 127.55044 Z M 287.23833,408.396 H 158.90866 v -45.33 h 128.32967 z m 0,-66.62889 H 158.90866 v -47.01 h 128.32967 z m 0,-68.30289 H 158.90866 v -49.632 h 128.32967 z m 0,-70.92889 H 158.90866 v -53.687 h 128.32967 z m 0,-74.98489 H 158.90866 V 75.057437 H 287.23833 Z M 432.656,406.416 c 0,0.845 -0.477,1.56 -1.148,1.98 H 308.53522 v -45.33 H 432.656 Z m 0,-64.64889 H 308.53522 v -47.01 H 432.656 Z m 0,-68.30289 H 308.53522 v -49.632 H 432.656 Z m 0,-70.92889 H 308.53522 v -53.687 H 432.656 Z m 0,-74.98489 H 308.53522 V 75.057437 H 432.656 Z m -156.34667,-13.248 H 169.43666 V 84.419438 h 106.86867 v 29.883002 z m 0,74.50289 H 169.43666 v -29.882 h 106.86867 v 29.882 z m 0,72.35189 H 169.43666 v -29.883 h 106.86867 v 29.883 z m 0,71.70189 H 169.43666 v -29.878 h 106.86867 v 29.878 z m 0,66.75989 H 169.43666 v -29.888 h 106.86867 v 29.888 z"
       sodipodi:nodetypes="sssscccsscccscscccccccccccccccccccccccccccccccccccccccccccccccccccccccsccccscccccccccccccccccccccccccccccccccccccccccccccccccc" /></g></svg>