<svg width="1792" height="1792" xmlns="http://www.w3.org/2000/svg">

 <g>
  <title>background</title>
  <rect fill="none" id="canvas_background" height="402" width="582" y="-1" x="-1"/>
 </g>
 <g>
  <title>Layer 1</title>
  <path fill="#c5c5c5" id="svg_1" d="m896,768q237,0 443,-43t325,-127l0,170q0,69 -103,128t-280,93.5t-385,34.5t-385,-34.5t-280,-93.5t-103,-128l0,-170q119,84 325,127t443,43zm0,768q237,0 443,-43t325,-127l0,170q0,69 -103,128t-280,93.5t-385,34.5t-385,-34.5t-280,-93.5t-103,-128l0,-170q119,84 325,127t443,43zm0,-384q237,0 443,-43t325,-127l0,170q0,69 -103,128t-280,93.5t-385,34.5t-385,-34.5t-280,-93.5t-103,-128l0,-170q119,84 325,127t443,43zm0,-1152q208,0 385,34.5t280,93.5t103,128l0,128q0,69 -103,128t-280,93.5t-385,34.5t-385,-34.5t-280,-93.5t-103,-128l0,-128q0,-69 103,-128t280,-93.5t385,-34.5z"/>
 </g>
</svg>