<?xml version="1.0" encoding="UTF-8" standalone="no"?>
<svg
   xmlns:dc="http://purl.org/dc/elements/1.1/"
   xmlns:cc="http://creativecommons.org/ns#"
   xmlns:rdf="http://www.w3.org/1999/02/22-rdf-syntax-ns#"
   xmlns:svg="http://www.w3.org/2000/svg"
   xmlns="http://www.w3.org/2000/svg"
   xmlns:sodipodi="http://sodipodi.sourceforge.net/DTD/sodipodi-0.dtd"
   xmlns:inkscape="http://www.inkscape.org/namespaces/inkscape"
   inkscape:version="1.0 (4035a4fb49, 2020-05-01)"
   sodipodi:docname="fdw_table.svg"
   id="svg12"
   version="1.1"
   height="1792"
   width="1792">
  <metadata
     id="metadata18">
    <rdf:RDF>
      <cc:Work
         rdf:about="">
        <dc:format>image/svg+xml</dc:format>
        <dc:type
           rdf:resource="http://purl.org/dc/dcmitype/StillImage" />
        <dc:title></dc:title>
      </cc:Work>
    </rdf:RDF>
  </metadata>
  <defs
     id="defs16" />
  <sodipodi:namedview
     inkscape:current-layer="g10"
     inkscape:window-maximized="1"
     inkscape:window-y="-8"
     inkscape:window-x="1912"
     inkscape:cy="1267.5585"
     inkscape:cx="2460.4961"
     inkscape:zoom="0.23716518"
     showgrid="false"
     id="namedview14"
     inkscape:window-height="1017"
     inkscape:window-width="1920"
     inkscape:pageshadow="2"
     inkscape:pageopacity="0"
     guidetolerance="10"
     gridtolerance="10"
     objecttolerance="10"
     borderopacity="1"
     bordercolor="#666666"
     pagecolor="#ffffff" />
  <g
     id="g5">
    <title
       id="title2">background</title>
    <rect
       x="-1"
       y="-1"
       width="582"
       height="402"
       id="canvas_background"
       fill="none" />
  </g>
  <g
     style="display:none"
     inkscape:label="ArrowMask"
     id="layer2"
     inkscape:groupmode="layer" />
  <g
     id="g10">
    <title
       id="title7">Layer 1</title>
    <path
       style="fill:#c5c5c5;fill-opacity:1"
       d="M 224 128 C 180 128 142.33333 143.66667 111 175 C 79.666667 206.33333 64 244 64 288 L 64 1376 C 64 1420 79.666667 1457.6667 111 1489 C 142.33333 1520.3333 180 1536 224 1536 L 1568 1536 C 1612 1536 1649.6667 1520.3333 1681 1489 C 1712.3333 1457.6667 1728 1420 1728 1376 L 1728 288 C 1728 282.81048 1727.7738 277.71253 1727.3379 272.69922 L 1727.3379 827.73828 C 1727.3379 851.35186 1718.6182 871.78681 1701.1777 889.04297 C 1683.737 906.29912 1663.0845 914.92773 1639.2188 914.92773 C 1624.4686 914.92773 1612.1239 910.16728 1600 903.36328 L 1600 992 C 1600 1001.3333 1597 1009 1591 1015 C 1585 1021 1577.3333 1024 1568 1024 L 1248 1024 C 1238.6667 1024 1231 1021 1225 1015 C 1221.7457 1011.7457 1219.3818 1007.9967 1217.8926 1003.7617 L 1065.457 1153.1797 C 1070.6504 1154.564 1075.167 1157.167 1079 1161 C 1085 1167 1088 1174.6667 1088 1184 L 1088 1376 C 1088 1385.3333 1085 1393 1079 1399 C 1073 1405 1065.3333 1408 1056 1408 L 736 1408 C 726.66667 1408 719 1405 713 1399 C 707 1393 704 1385.3333 704 1376 L 704 1184 C 704 1174.6667 707 1167 713 1161 C 719 1155 726.66667 1152 736 1152 L 825.02344 1152 L 599.82422 926.30469 C 590.70342 917.16383 586.05469 906.77954 586.05469 894.97266 C 586.05469 883.16578 590.66964 872.74573 599.82422 863.63867 L 824.62891 640 L 736 640 C 726.66667 640 719 637 713 631 C 707 625 704 617.33333 704 608 L 704 416 C 704 406.66667 707 399 713 393 C 719 387 726.66667 384 736 384 L 1056 384 C 1061.1833 384 1065.8506 384.92879 1070.0059 386.7793 L 953.37891 272.61719 C 935.84599 255.45479 927.2168 234.92607 927.2168 211.3125 C 927.2168 187.69889 935.93835 167.26396 953.37891 150.00781 C 964.0751 139.42473 975.98081 132.09253 989.09375 128 L 224 128 z M 224 384 L 544 384 C 553.33333 384 561 387 567 393 C 573 399 576 406.66667 576 416 L 576 608 C 576 617.33333 573 625 567 631 C 561 637 553.33333 640 544 640 L 224 640 C 214.66667 640 207 637 201 631 C 195 625 192 617.33333 192 608 L 192 416 C 192 406.66667 195 399 201 393 C 207 387 214.66667 384 224 384 z M 224 768 L 544 768 C 553.33333 768 561 771 567 777 C 573 783 576 790.66667 576 800 L 576 992 C 576 1001.3333 573 1009 567 1015 C 561 1021 553.33333 1024 544 1024 L 224 1024 C 214.66667 1024 207 1021 201 1015 C 195 1009 192 1001.3333 192 992 L 192 800 C 192 790.66667 195 783 201 777 C 207 771 214.66667 768 224 768 z M 224 1152 L 544 1152 C 553.33333 1152 561 1155 567 1161 C 573 1167 576 1174.6667 576 1184 L 576 1376 C 576 1385.3333 573 1393 567 1399 C 561 1405 553.33333 1408 544 1408 L 224 1408 C 214.66667 1408 207 1405 201 1399 C 195 1393 192 1385.3333 192 1376 L 192 1184 C 192 1174.6667 195 1167 201 1161 C 207 1155 214.66667 1152 224 1152 z M 1248 1152 L 1568 1152 C 1577.3333 1152 1585 1155 1591 1161 C 1597 1167 1600 1174.6667 1600 1184 L 1600 1376 C 1600 1385.3333 1597 1393 1591 1399 C 1585 1405 1577.3333 1408 1568 1408 L 1248 1408 C 1238.6667 1408 1231 1405 1225 1399 C 1219 1393 1216 1385.3333 1216 1376 L 1216 1184 C 1216 1174.6667 1219 1167 1225 1161 C 1231 1155 1238.6667 1152 1248 1152 z "
       id="svg_1" />
  </g>
  <g
     sodipodi:insensitive="true"
     style="display:inline"
     inkscape:label="Arrow"
     id="layer1"
     inkscape:groupmode="layer">
    <path
       style="fill:#c5c5c5;fill-opacity:1;stroke-width:0.733362"
       d="m 1707.3386,188.1235 v 375.48148 c 0,12.71161 -4.6446,23.71204 -13.9339,33.0013 -9.2893,9.28926 -20.2897,13.93388 -33.0013,13.93388 -12.7116,0 -23.712,-4.64462 -33.0013,-13.93388 L 1498.3304,467.53452 1020.1781,945.6867 c -4.8891,4.88911 -10.5115,7.33362 -16.8673,7.33362 -6.35582,0 -11.97826,-2.44451 -16.86734,-7.33362 l -83.6033,-83.6033 c -4.88908,-4.88903 -7.33362,-10.5115 -7.33362,-16.86733 0,-6.35576 2.44454,-11.97823 7.33362,-16.86733 L 1380.9924,350.19656 1251.9206,221.12481 c -9.2892,-9.28926 -13.9338,-20.2897 -13.9338,-33.00131 0,-12.71161 4.6446,-23.71204 13.9338,-33.0013 9.2893,-9.28925 20.2898,-13.93388 33.0013,-13.93388 h 375.4815 c 12.7116,0 23.712,4.64463 33.0013,13.93388 9.2893,9.28926 13.9339,20.28969 13.9339,33.0013 z"
       id="path2"
       sodipodi:nodetypes="ssssscsssssscsssssss" />
  </g>
</svg>
