<?xml version="1.0" encoding="UTF-8" standalone="no"?>
<!-- Created with Inkscape (http://www.inkscape.org/) -->

<svg
   xmlns:dc="http://purl.org/dc/elements/1.1/"
   xmlns:cc="http://creativecommons.org/ns#"
   xmlns:rdf="http://www.w3.org/1999/02/22-rdf-syntax-ns#"
   xmlns:svg="http://www.w3.org/2000/svg"
   xmlns="http://www.w3.org/2000/svg"
   xmlns:sodipodi="http://sodipodi.sourceforge.net/DTD/sodipodi-0.dtd"
   xmlns:inkscape="http://www.inkscape.org/namespaces/inkscape"
   width="16"
   height="16"
   viewBox="0 0 4.2333333 4.2333333"
   version="1.1"
   id="svg2700"
   sodipodi:docname="func-folder.svg"
   inkscape:version="0.92.3 (2405546, 2018-03-11)">
  <defs
     id="defs2694">
    <clipPath
       clipPathUnits="userSpaceOnUse"
       id="clipPath3305">
      <rect
         style="fill:none;fill-opacity:1;stroke:#000000;stroke-width:0.26458332;stroke-linecap:round;stroke-linejoin:miter;stroke-miterlimit:4;stroke-dasharray:none;stroke-opacity:1"
         id="rect3307"
         width="2.2383823"
         height="1.2695302"
         x="62.808334"
         y="115.62421" />
    </clipPath>
    <clipPath
       clipPathUnits="userSpaceOnUse"
       id="clipPath3419">
      <rect
         style="fill:none;fill-opacity:1;stroke:#656565;stroke-width:0.26458332;stroke-linecap:round;stroke-linejoin:miter;stroke-miterlimit:4;stroke-dasharray:none;stroke-opacity:1"
         id="rect3421"
         width="1.5529821"
         height="0.96833003"
         x="-2.4847715"
         y="294.31427" />
    </clipPath>
  </defs>
  <sodipodi:namedview
     id="base"
     pagecolor="#ffffff"
     bordercolor="#666666"
     borderopacity="1.0"
     inkscape:pageopacity="0.0"
     inkscape:pageshadow="2"
     inkscape:zoom="10.24"
     inkscape:cx="-1.6260453"
     inkscape:cy="-1.972479"
     inkscape:document-units="mm"
     inkscape:current-layer="layer1"
     showgrid="false"
     units="px"
     inkscape:window-width="1366"
     inkscape:window-height="703"
     inkscape:window-x="0"
     inkscape:window-y="0"
     inkscape:window-maximized="1" />
  <metadata
     id="metadata2697">
    <rdf:RDF>
      <cc:Work
         rdf:about="">
        <dc:format>image/svg+xml</dc:format>
        <dc:type
           rdf:resource="http://purl.org/dc/dcmitype/StillImage" />
        <dc:title></dc:title>
      </cc:Work>
    </rdf:RDF>
  </metadata>
  <g
     inkscape:label="Layer 1"
     inkscape:groupmode="layer"
     id="layer1"
     transform="translate(0,-292.76667)">
    <g
       id="g3430"
       transform="translate(0.05167643,0.18086751)"
       style="stroke:#c5c5c5;stroke-opacity:1">
      <path
         transform="translate(4.2781614,-1.5346811)"
         clip-path="url(#clipPath3419)"
         style="stroke:#c5c5c5;stroke-width:0.26458332;stroke-opacity:1"
         id="path2146"
         d="m -1.2851038,295.97039 a 0.428625,0.428625 0 0 1 -0.076729,-0.0317 0.29633333,0.29633333 0 0 1 -0.074083,-0.0529 0.28310417,0.28310417 0 0 1 -0.050271,-0.0688 0.3254375,0.3254375 0 0 1 -0.042333,-0.11113 1.095375,1.095375 0 0 1 0,-0.14023 q 0,-0.082 0,-0.20373 v 0.0423 c 0,-0.0556 0,-0.11113 0,-0.17198 a 0.4206875,0.4206875 0 0 0 -0.047625,-0.16405 0.33072917,0.33072917 0 0 0 -0.1243542,-0.127 0.52916667,0.52916667 0 0 0 -0.2407708,-0.0609 v -0.0503 h 0.0635 0.079375 l 0.084667,0.0265 a 0.33866667,0.33866667 0 0 1 0.082021,0.0476 0.39158333,0.39158333 0 0 1 0.097896,0.10584 0.43127083,0.43127083 0 0 1 0.050271,0.127 0.82020833,0.82020833 0 0 1 0.018521,0.15081 c 0,0.0556 0,0.22225 0,0.22225 a 0.9286875,0.9286875 0 0 0 0.013229,0.17462 0.2778125,0.2778125 0 0 0 0.055563,0.12436 0.31220833,0.31220833 0 0 0 0.1164167,0.0847 c 0.042333,0.0503 0.015875,0.0767 -0.00529,0.0767 z"
         class="cls-35"
         inkscape:connector-curvature="0" />
      <path
         style="stroke:#c5c5c5;stroke-width:0.26458332;stroke-opacity:1"
         id="path2148"
         d="m 1.2653318,293.35354 a 0.52916667,0.52916667 0 0 0 -0.2407708,0.0609 0.33072917,0.33072917 0 0 0 -0.12435419,0.127 0.42333333,0.42333333 0 0 0 -0.047625,0.16404 q 0,0.0873 0,0.17198 v -0.0423 c 0,0.0794 0,0.14817 0,0.20373 a 1.0900833,1.0900833 0 0 1 0,0.14023 0.32279167,0.32279167 0 0 1 -0.029104,0.0979 0.2778125,0.2778125 0 0 1 -0.050271,0.0688 0.29633333,0.29633333 0 0 1 -0.074083,0.0556 l -0.087312,0.0344 -0.068792,0.0159 c -0.021167,0 -0.021167,0 0,0.0132 l 0.068792,0.0159 a 0.428625,0.428625 0 0 1 0.076729,0.0317 0.29633333,0.29633333 0 0 1 0.074083,0.0529 0.28310417,0.28310417 0 0 1 0.050271,0.0688 0.3254375,0.3254375 0 0 1 0.029104,0.0979 1.095375,1.095375 0 0 1 0,0.14023 q 0,0.082 0,0.20373 v -0.0423 c 0,0.0556 0,0.11113 0,0.17198 a 0.4206875,0.4206875 0 0 0 0.047625,0.16404 0.33072917,0.33072917 0 0 0 0.12435419,0.127 0.52916667,0.52916667 0 0 0 0.2407708,0.0609 v 0.0503 h -0.0635 -0.079375 l -0.084667,-0.0265 a 0.33866667,0.33866667 0 0 1 -0.082021,-0.0476 0.39158333,0.39158333 0 0 1 -0.097896,-0.10583 0.43127083,0.43127083 0 0 1 -0.050271,-0.127 0.82020833,0.82020833 0 0 1 -0.018521,-0.15081 c 0,-0.0556 0,-0.22225 0,-0.22225 a 0.9286875,0.9286875 0 0 0 -0.013229,-0.17463 0.2778125,0.2778125 0 0 0 -0.055562,-0.12435 0.31220833,0.31220833 0 0 0 -0.1164167,-0.0847 0.08202083,0.08202083 0 0 1 0,-0.13758 0.31220833,0.31220833 0 0 0 0.1164167,-0.0847 0.28045833,0.28045833 0 0 0 0.055562,-0.12435 0.9286875,0.9286875 0 0 0 0.013229,-0.17463 c 0,0 0,-0.32808 0.021167,-0.37306 a 0.428625,0.428625 0 0 1 0.050271,-0.12435 0.3889375,0.3889375 0 0 1 0.097896,-0.10584 0.3413125,0.3413125 0 0 1 0.082021,-0.0476 l 0.084667,-0.0265 h 0.079375 0.0635 z"
         class="cls-35"
         inkscape:connector-curvature="0" />
      <path
         style="stroke:#c5c5c5;stroke-width:0.26458332;stroke-opacity:1"
         id="path2192"
         d="m 3.0988943,296.08404 a 0.52916667,0.52916667 0 0 0 0.2407709,-0.0609 0.33072917,0.33072917 0 0 0 0.1243541,-0.127 0.42333333,0.42333333 0 0 0 0.047625,-0.16404 q 0,-0.0873 0,-0.17198 v 0.0423 c 0,-0.0794 0,-0.14817 0,-0.20373 a 1.0900833,1.0900833 0 0 1 0,-0.14023 0.32279167,0.32279167 0 0 1 0.029104,-0.0979 0.2778125,0.2778125 0 0 1 0.050271,-0.0688 0.29633333,0.29633333 0 0 1 0.074083,-0.0556 l 0.076729,-0.0317 0.068792,-0.0158 c 0.021167,0 0.021167,0 0,-0.0132 l -0.068792,-0.0159 a 0.428625,0.428625 0 0 1 -0.076729,-0.0317 0.29633333,0.29633333 0 0 1 -0.074083,-0.0529 0.28310417,0.28310417 0 0 1 -0.050271,-0.0688 0.3254375,0.3254375 0 0 1 -0.018521,-0.10583 1.095375,1.095375 0 0 1 0,-0.14023 q 0,-0.082 0,-0.20373 v 0.0423 c 0,-0.0556 0,-0.11112 0,-0.17198 a 0.4206875,0.4206875 0 0 0 -0.047625,-0.16404 0.33072917,0.33072917 0 0 0 -0.1243542,-0.127 0.52916667,0.52916667 0 0 0 -0.2407708,-0.0609 v -0.0503 h 0.0635 0.079375 l 0.084667,0.0265 a 0.33866667,0.33866667 0 0 1 0.082021,0.0476 0.39158333,0.39158333 0 0 1 0.097896,0.10583 0.43127083,0.43127083 0 0 1 0.050271,0.127 0.82020833,0.82020833 0 0 1 0.018521,0.15082 c 0,0.0556 0,0.22225 0,0.22225 a 0.9286875,0.9286875 0 0 0 0.013229,0.17462 0.2778125,0.2778125 0 0 0 0.055562,0.12435 0.31220833,0.31220833 0 0 0 0.1164167,0.0847 0.08202083,0.08202083 0 0 1 0,0.13758 0.31220833,0.31220833 0 0 0 -0.1164167,0.0847 0.28045833,0.28045833 0 0 0 -0.055562,0.12436 0.9286875,0.9286875 0 0 0 -0.013229,0.17462 c 0,0 0,0.32808 -0.021167,0.37306 a 0.428625,0.428625 0 0 1 -0.050271,0.12436 0.3889375,0.3889375 0 0 1 -0.097896,0.10583 0.3413125,0.3413125 0 0 1 -0.082021,0.0476 l -0.084667,0.0265 h -0.079375 -0.0635 z"
         class="cls-37"
         inkscape:connector-curvature="0" />
      <path
         style="stroke:#c5c5c5;stroke-width:0.26458332;stroke-opacity:1"
         id="path2194"
         d="m 2.0590818,293.8827 a 0.52916667,0.52916667 0 0 0 -0.2407708,0.0609 0.33072917,0.33072917 0 0 0 -0.1243542,0.127 0.42333333,0.42333333 0 0 0 -0.047625,0.16404 q 0,0.0873 0,0.17198 v -0.0423 c 0,0.0794 0,0.14816 0,0.20373 a 1.0900833,1.0900833 0 0 1 0,0.14022 0.32279167,0.32279167 0 0 1 -0.029104,0.0979 0.2778125,0.2778125 0 0 1 -0.050271,0.0688 0.29633333,0.29633333 0 0 1 -0.074083,0.0556 l -0.087312,0.0344 -0.068792,0.0159 c -0.021167,0 -0.021167,0 0,0.0132 l 0.068792,0.0159 a 0.428625,0.428625 0 0 1 0.076729,0.0317 0.29633333,0.29633333 0 0 1 0.074083,0.0529 0.28310417,0.28310417 0 0 1 0.050271,0.0688 0.3254375,0.3254375 0 0 1 0.029104,0.0979 1.095375,1.095375 0 0 1 0,0.14023 q 0,0.082 0,0.20373 v -0.0423 c 0,0.0556 0,0.11112 0,0.17198 a 0.4206875,0.4206875 0 0 0 0.047625,0.16404 0.33072917,0.33072917 0 0 0 0.1243542,0.127 0.52916667,0.52916667 0 0 0 0.2407708,0.0609 v 0.0503 h -0.0635 -0.079375 l -0.084667,-0.0265 a 0.33866667,0.33866667 0 0 1 -0.082021,-0.0476 0.39158333,0.39158333 0 0 1 -0.097896,-0.10583 0.43127083,0.43127083 0 0 1 -0.050271,-0.127 0.82020833,0.82020833 0 0 1 -0.018521,-0.15081 c 0,-0.0556 0,-0.22225 0,-0.22225 a 0.9286875,0.9286875 0 0 0 -0.013229,-0.17463 0.2778125,0.2778125 0 0 0 -0.055563,-0.12435 0.31220833,0.31220833 0 0 0 -0.1164167,-0.0847 0.08202083,0.08202083 0 0 1 0,-0.13758 0.31220833,0.31220833 0 0 0 0.1164167,-0.0847 0.28045833,0.28045833 0 0 0 0.055563,-0.12435 0.9286875,0.9286875 0 0 0 0.013229,-0.17463 c 0,0 0,-0.32808 0.021167,-0.37306 a 0.428625,0.428625 0 0 1 0.050271,-0.12436 0.3889375,0.3889375 0 0 1 0.097896,-0.10583 0.3413125,0.3413125 0 0 1 0.082021,-0.0476 l 0.084667,-0.0265 h 0.079375 0.0635 z"
         class="cls-37"
         inkscape:connector-curvature="0" />
      <line
         style="stroke:#c5c5c5;stroke-width:0.26458332;stroke-opacity:1"
         id="line2196"
         y2="294.43567"
         x2="2.9930613"
         y1="294.43567"
         x1="2.199311"
         class="cls-29" />
      <line
         style="stroke:#c5c5c5;stroke-width:0.26458332;stroke-opacity:1"
         id="line2198"
         y2="294.96484"
         x2="2.9930613"
         y1="294.96484"
         x1="2.199311"
         class="cls-29" />
      <line
         style="stroke:#c5c5c5;stroke-width:0.31847382;stroke-opacity:1"
         id="line2200"
         y2="295.49402"
         x2="2.9659927"
         y1="295.49402"
         x1="2.199311"
         class="cls-29" />
    </g>
  </g>
</svg>
