<?xml version="1.0" encoding="UTF-8" standalone="no"?>
<!-- Created with Inkscape (http://www.inkscape.org/) -->

<svg
   xmlns:dc="http://purl.org/dc/elements/1.1/"
   xmlns:cc="http://creativecommons.org/ns#"
   xmlns:rdf="http://www.w3.org/1999/02/22-rdf-syntax-ns#"
   xmlns:svg="http://www.w3.org/2000/svg"
   xmlns="http://www.w3.org/2000/svg"
   xmlns:sodipodi="http://sodipodi.sourceforge.net/DTD/sodipodi-0.dtd"
   xmlns:inkscape="http://www.inkscape.org/namespaces/inkscape"
   width="16"
   height="16"
   viewBox="0 0 4.2333333 4.2333333"
   version="1.1"
   id="svg2700"
   sodipodi:docname="function.svg"
   inkscape:version="0.92.3 (2405546, 2018-03-11)">
  <defs
     id="defs2694">
    <clipPath
       clipPathUnits="userSpaceOnUse"
       id="clipPath3305">
      <rect
         style="fill:none;fill-opacity:1;stroke:#000000;stroke-width:0.26458332;stroke-linecap:round;stroke-linejoin:miter;stroke-miterlimit:4;stroke-dasharray:none;stroke-opacity:1"
         id="rect3307"
         width="2.2383823"
         height="1.2695302"
         x="62.808334"
         y="115.62421" />
    </clipPath>
    <clipPath
       clipPathUnits="userSpaceOnUse"
       id="clipPath3419">
      <rect
         style="fill:none;fill-opacity:1;stroke:#656565;stroke-width:0.26458332;stroke-linecap:round;stroke-linejoin:miter;stroke-miterlimit:4;stroke-dasharray:none;stroke-opacity:1"
         id="rect3421"
         width="1.5529821"
         height="0.96833003"
         x="-2.4847715"
         y="294.31427" />
    </clipPath>
  </defs>
  <sodipodi:namedview
     id="base"
     pagecolor="#ffffff"
     bordercolor="#666666"
     borderopacity="1.0"
     inkscape:pageopacity="0.0"
     inkscape:pageshadow="2"
     inkscape:zoom="10.24"
     inkscape:cx="-1.6260453"
     inkscape:cy="-1.972479"
     inkscape:document-units="mm"
     inkscape:current-layer="layer1"
     showgrid="false"
     units="px"
     inkscape:window-width="1366"
     inkscape:window-height="703"
     inkscape:window-x="0"
     inkscape:window-y="0"
     inkscape:window-maximized="1" />
  <metadata
     id="metadata2697">
    <rdf:RDF>
      <cc:Work
         rdf:about="">
        <dc:format>image/svg+xml</dc:format>
        <dc:type
           rdf:resource="http://purl.org/dc/dcmitype/StillImage" />
        <dc:title></dc:title>
      </cc:Work>
    </rdf:RDF>
  </metadata>
  <g
     inkscape:label="Layer 1"
     inkscape:groupmode="layer"
     id="layer1"
     transform="translate(0,-292.76667)">
    <g
       id="g3463">
      <path
         style="stroke:#c5c5c5;stroke-width:0.31978616;stroke-opacity:1"
         id="path2192"
         d="m 2.7713985,296.32709 a 0.61573163,0.6643362 0 0 0 0.280158,-0.0765 0.38483227,0.41521013 0 0 0 0.1446969,-0.15944 0.4925853,0.53146895 0 0 0 0.055416,-0.20594 q 0,-0.1096 0,-0.21591 v 0.0531 c 0,-0.0997 0,-0.18601 0,-0.25577 a 1.2684071,1.3685325 0 0 1 0,-0.17605 0.37559629,0.40524508 0 0 1 0.033865,-0.1229 0.3232591,0.3487765 0 0 1 0.058495,-0.0864 0.34480971,0.37202826 0 0 1 0.086202,-0.0698 l 0.089281,-0.0398 0.080046,-0.0198 c 0.02463,0 0.02463,0 0,-0.0166 l -0.080046,-0.02 a 0.49874262,0.53811232 0 0 1 -0.089281,-0.0398 0.34480971,0.37202826 0 0 1 -0.086202,-0.0664 0.32941642,0.35541987 0 0 1 -0.058495,-0.0864 0.37867495,0.40856676 0 0 1 -0.021551,-0.13287 1.2745645,1.3751759 0 0 1 0,-0.17605 q 0,-0.10294 0,-0.25577 v 0.0531 c 0,-0.0698 0,-0.13951 0,-0.21591 a 0.48950664,0.52814727 0 0 0 -0.055416,-0.20594 0.38483227,0.41521013 0 0 0 -0.144697,-0.15944 0.61573163,0.6643362 0 0 0 -0.2801578,-0.0765 v -0.0632 h 0.073888 0.09236 l 0.098518,0.0333 a 0.39406824,0.42517517 0 0 1 0.095439,0.0598 0.4556414,0.49160878 0 0 1 0.1139105,0.13286 0.50182127,0.54143399 0 0 1 0.058495,0.15944 0.95438401,1.0297211 0 0 1 0.021551,0.18935 c 0,0.0698 0,0.27902 0,0.27902 a 1.080609,1.16591 0 0 0 0.015393,0.21922 0.3232591,0.3487765 0 0 0 0.064651,0.15612 0.36328165,0.39195835 0 0 0 0.135461,0.10633 0.0954384,0.10297211 0 0 1 0,0.17273 0.36328165,0.39195835 0 0 0 -0.135461,0.10633 0.32633776,0.35209818 0 0 0 -0.064651,0.15613 1.080609,1.16591 0 0 0 -0.015393,0.21922 c 0,0 0,0.41189 -0.02463,0.46836 a 0.49874262,0.53811232 0 0 1 -0.058495,0.15612 0.45256274,0.4882871 0 0 1 -0.1139106,0.13287 0.3971469,0.42849684 0 0 1 -0.095439,0.0598 l -0.098517,0.0333 h -0.09236 -0.073888 z"
         class="cls-37"
         inkscape:connector-curvature="0" />
      <path
         style="stroke:#c5c5c5;stroke-width:0.31978616;stroke-opacity:1"
         id="path2194"
         d="m 1.5614859,293.48593 a 0.61573163,0.6643362 0 0 0 -0.2801579,0.0765 0.38483227,0.41521013 0 0 0 -0.1446969,0.15944 0.4925853,0.53146895 0 0 0 -0.055416,0.20594 q 0,0.1096 0,0.21591 v -0.0531 c 0,0.0997 0,0.18601 0,0.25578 a 1.2684071,1.3685325 0 0 1 0,0.17603 0.37559629,0.40524508 0 0 1 -0.033865,0.12291 0.3232591,0.3487765 0 0 1 -0.0584947,0.0864 0.34480971,0.37202826 0 0 1 -0.086202,0.0698 l -0.10159514,0.0432 -0.0800455,0.02 c -0.0246296,0 -0.0246296,0 0,0.0166 l 0.0800455,0.02 a 0.49874262,0.53811232 0 0 1 0.0892809,0.0398 0.34480971,0.37202826 0 0 1 0.086202,0.0664 0.32941642,0.35541987 0 0 1 0.0584947,0.0864 0.37867495,0.40856676 0 0 1 0.033865,0.12291 1.2745645,1.3751759 0 0 1 0,0.17605 q 0,0.10295 0,0.25577 v -0.0531 c 0,0.0698 0,0.1395 0,0.21591 a 0.48950664,0.52814727 0 0 0 0.055416,0.20594 0.38483227,0.41521013 0 0 0 0.144697,0.15944 0.61573163,0.6643362 0 0 0 0.2801579,0.0765 v 0.0631 h -0.073888 -0.09236 l -0.098517,-0.0333 a 0.39406824,0.42517517 0 0 1 -0.095439,-0.0598 0.4556414,0.49160878 0 0 1 -0.1139106,-0.13287 0.50182127,0.54143399 0 0 1 -0.058495,-0.15944 0.95438401,1.0297211 0 0 1 -0.0215508,-0.18933 c 0,-0.0698 0,-0.27902 0,-0.27902 a 1.080609,1.16591 0 0 0 -0.0153931,-0.21924 0.3232591,0.3487765 0 0 0 -0.0646524,-0.15611 0.36328165,0.39195835 0 0 0 -0.135461,-0.10634 0.0954384,0.10297211 0 0 1 0,-0.17272 0.36328165,0.39195835 0 0 0 0.135461,-0.10634 0.32633776,0.35209818 0 0 0 0.0646524,-0.15611 1.080609,1.16591 0 0 0 0.0153931,-0.21924 c 0,0 0,-0.41188 0.0246297,-0.46835 a 0.49874262,0.53811232 0 0 1 0.058495,-0.15613 0.45256274,0.4882871 0 0 1 0.1139105,-0.13286 0.3971469,0.42849684 0 0 1 0.095439,-0.0598 l 0.098518,-0.0333 h 0.09236 0.073888 z"
         class="cls-37"
         inkscape:connector-curvature="0" />
      <line
         style="stroke:#c5c5c5;stroke-width:0.31978616;stroke-opacity:1"
         id="line2196"
         y2="294.25766"
         x2="2.6224146"
         y1="294.25766"
         x1="1.6988167"
         class="cls-29" />
      <line
         style="stroke:#c5c5c5;stroke-width:0.31978616;stroke-opacity:1"
         id="line2198"
         y2="294.92203"
         x2="2.6224146"
         y1="294.92203"
         x1="1.6988167"
         class="cls-29" />
      <line
         style="stroke:#c5c5c5;stroke-width:0.38492042;stroke-opacity:1"
         id="line2200"
         y2="295.58636"
         x2="2.5909178"
         y1="295.58636"
         x1="1.6988167"
         class="cls-29" />
    </g>
  </g>
</svg>
