<svg width="896.9" height="1024" xmlns="http://www.w3.org/2000/svg">

 <g>
  <title>background</title>
  <rect fill="none" id="canvas_background" height="402" width="582" y="-1" x="-1"/>
 </g>
 <g>
  <title>Layer 1</title>
  <path fill="#c5c5c5" id="svg_1" d="m640.9,63.9c-141.4,0 -256,114.6 -256,256c0,19.6 2.2,38.6 6.4,56.9l-391.3,391.2l0,64l64,64l128,0l64,-64l0,-64l64,0l0,-64l64,0l0,-64l128,0l70.8,-70.8c18.7,4.3 38.1,6.6 58.1,6.6c141.4,0 256,-114.6 256,-256s-114.7,-255.9 -256,-255.9zm-256.9,448.1l-320,320l0,-64l320,-320l0,64zm320,-192c-35.3,0 -64,-28.7 -64,-64c0,-35.3 28.7,-64 64,-64s64,28.7 64,64c0,35.3 -28.7,64 -64,64z"/>
 </g>
</svg>