<svg width="1792" height="1792" xmlns="http://www.w3.org/2000/svg">

 <g>
  <title>background</title>
  <rect fill="none" id="canvas_background" height="402" width="582" y="-1" x="-1"/>
 </g>
 <g>
  <title>Layer 1</title>
  <path fill="#c5c5c5" id="svg_1" d="m576,1376l0,-192q0,-14 -9,-23t-23,-9l-320,0q-14,0 -23,9t-9,23l0,192q0,14 9,23t23,9l320,0q14,0 23,-9t9,-23zm0,-384l0,-192q0,-14 -9,-23t-23,-9l-320,0q-14,0 -23,9t-9,23l0,192q0,14 9,23t23,9l320,0q14,0 23,-9t9,-23zm512,384l0,-192q0,-14 -9,-23t-23,-9l-320,0q-14,0 -23,9t-9,23l0,192q0,14 9,23t23,9l320,0q14,0 23,-9t9,-23zm-512,-768l0,-192q0,-14 -9,-23t-23,-9l-320,0q-14,0 -23,9t-9,23l0,192q0,14 9,23t23,9l320,0q14,0 23,-9t9,-23zm512,384l0,-192q0,-14 -9,-23t-23,-9l-320,0q-14,0 -23,9t-9,23l0,192q0,14 9,23t23,9l320,0q14,0 23,-9t9,-23zm512,384l0,-192q0,-14 -9,-23t-23,-9l-320,0q-14,0 -23,9t-9,23l0,192q0,14 9,23t23,9l320,0q14,0 23,-9t9,-23zm-512,-768l0,-192q0,-14 -9,-23t-23,-9l-320,0q-14,0 -23,9t-9,23l0,192q0,14 9,23t23,9l320,0q14,0 23,-9t9,-23zm512,384l0,-192q0,-14 -9,-23t-23,-9l-320,0q-14,0 -23,9t-9,23l0,192q0,14 9,23t23,9l320,0q14,0 23,-9t9,-23zm0,-384l0,-192q0,-14 -9,-23t-23,-9l-320,0q-14,0 -23,9t-9,23l0,192q0,14 9,23t23,9l320,0q14,0 23,-9t9,-23zm128,-320l0,1088q0,66 -47,113t-113,47l-1344,0q-66,0 -113,-47t-47,-113l0,-1088q0,-66 47,-113t113,-47l1344,0q66,0 113,47t47,113z"/>
 </g>
</svg>