<?xml version="1.0" encoding="UTF-8" standalone="no"?>
<svg
   xmlns:dc="http://purl.org/dc/elements/1.1/"
   xmlns:cc="http://creativecommons.org/ns#"
   xmlns:rdf="http://www.w3.org/1999/02/22-rdf-syntax-ns#"
   xmlns:svg="http://www.w3.org/2000/svg"
   xmlns="http://www.w3.org/2000/svg"
   xmlns:sodipodi="http://sodipodi.sourceforge.net/DTD/sodipodi-0.dtd"
   xmlns:inkscape="http://www.inkscape.org/namespaces/inkscape"
   viewBox="0 0 50 50"
   version="1.1"
   id="svg7"
   sodipodi:docname="postgres-explorer2.svg"
   inkscape:version="0.92.4 (5da689c313, 2019-01-14)">
  <defs
     id="defs11" />
  <sodipodi:namedview
     pagecolor="#ffffff"
     bordercolor="#666666"
     borderopacity="1"
     objecttolerance="10"
     gridtolerance="10"
     guidetolerance="10"
     inkscape:pageopacity="0"
     inkscape:pageshadow="2"
     inkscape:window-width="1920"
     inkscape:window-height="1017"
     id="namedview9"
     showgrid="false"
     inkscape:zoom="13.350176"
     inkscape:cx="25.999566"
     inkscape:cy="28.449407"
     inkscape:window-x="1912"
     inkscape:window-y="-8"
     inkscape:window-maximized="1"
     inkscape:current-layer="layer3" />
  <metadata
     id="metadata5">
    <rdf:RDF>
      <rdf:Description
         about="https://iconscout.com/legal#licenses"
         dc:title="postgresql,filled"
         dc:description="postgresql,filled"
         dc:publisher="Iconscout"
         dc:date="2017-12-09"
         dc:format="image/svg+xml"
         dc:language="en">
        <dc:creator>
          <rdf:Bag>
            <rdf:li>Icons8</rdf:li>
          </rdf:Bag>
        </dc:creator>
      </rdf:Description>
      <cc:Work
         rdf:about="">
        <dc:format>image/svg+xml</dc:format>
        <dc:type
           rdf:resource="http://purl.org/dc/dcmitype/StillImage" />
      </cc:Work>
    </rdf:RDF>
  </metadata>
  <g
     inkscape:groupmode="layer"
     id="layer1"
     inkscape:label="Layer 1">
    <path
       d="m 135.33304,-40.832746 c 0.042,3.103788 0.021,6.26125 0,9.418713 -0.0257,3.155129 -0.0467,6.314925 -0.005,9.418713 -0.042,3.101454 -0.021,6.258916 0.002,9.416379 0.021,3.1597964 0.0443,6.3149254 0,9.4187134 6.29159,8.405898 37.03076,8.405898 43.32235,0 -0.0443,-3.103788 -0.021,-6.261251 0,-9.4187134 0.021,-3.157463 0.0443,-6.314925 0.002,-9.416379 0.042,-3.103788 0.0187,-6.261251 -0.002,-9.418713 -0.021,-3.157463 -0.0443,-6.314925 0,-9.418713 -14.52946,-11.299655 -41.70044,-3.722212 -43.32001,0 z m 40.2769,4.494658 c 0.005,1.173839 0.0117,1.925282 0.0187,3.103788 0.0187,2.949765 -0.014,6.704649 -0.0513,9.60074 0.0373,2.898424 0.0163,5.845856 -0.002,8.795621 -0.0187,2.949766 -0.0397,7.1270444 0,10.0254694 -4.72569,6.875007 -32.15571,7.276399 -37.14744,0.014 0.035,-2.898425 0.0163,-7.0897054 -0.002,-10.0394714 -0.0187,-2.949765 -0.0373,-5.897197 0,-8.795621 -0.0373,-2.898425 0.035,-6.653308 0.0537,-9.60074 0.007,-1.178506 0.0163,-1.927616 0.0187,-3.103788 3.2438,2.597381 10.33351,3.971915 18.55505,3.971915 8.22154,0 15.31357,-1.374534 18.55738,-3.971915 z"
       style="clip-rule:evenodd;fill:#000000;fill-opacity:1;fill-rule:evenodd;stroke-width:2.33367515"
       id="path2-0"
       inkscape:connector-curvature="0" />
  </g>
  <g
     inkscape:groupmode="layer"
     id="layer2"
     inkscape:label="Layer 2"
     style="display:inline">
    <path
       style="clip-rule:evenodd;fill:#000000;fill-opacity:1;fill-rule:evenodd;stroke-width:2.33367515"
       d="M 25.255859,0.04101562 C 14.273045,0.21098538 4.3034172,3.780171 3.3417969,5.9902344 c 0.04201,3.103788 0.021,6.2605056 0,9.4179686 -0.02567,3.155129 -0.047829,6.314181 -0.00586,9.417969 -0.04201,3.101454 -0.019394,6.258552 0.00391,9.416016 0.021,3.159796 0.04434,6.316133 0,9.419921 6.2915889,8.405898 37.0306741,8.405898 43.3222651,0 -0.0443,-3.103788 -0.021,-6.26246 0,-9.419921 0.021,-3.157463 0.04425,-6.314562 0.002,-9.416016 0.042,-3.103788 0.01875,-6.260507 -0.002,-9.417969 -0.021,-3.157463 -0.0443,-6.3141806 0,-9.4179686 C 40.759515,1.3997495 32.770416,-0.07527947 25.255859,0.04101562 Z m 9.347657,2.76562498 c 2.829164,0.095672 4.881112,1.1700485 5.662109,1.5605469 1.171496,0.5857484 2.828472,1.463522 3.904297,3.4160156 0.488123,0.87667 0.683594,1.7579686 0.683594,2.2460939 0.292874,1.563947 0.19314,2.92868 -0.488282,5.857422 -0.167318,0.774542 -0.408809,1.730873 -0.736328,2.857422 -0.01065,1.550272 -0.02561,3.097099 -0.04297,4.443359 0.02996,2.32566 0.01966,4.686129 0.0059,7.050781 0.09347,0.01394 0.156818,0.04098 0.185547,0.09961 0.07369,0.144472 -0.02849,0.379185 -0.1875,0.630859 -0.0021,0.338922 -0.0037,0.67657 -0.0059,1.015625 -0.01867,2.949766 -0.03967,7.126966 0,10.025391 -4.725692,6.875007 -32.156707,7.27607 -37.1484371,0.01367 0.03501,-2.898426 0.016687,-7.089297 -0.00195,-10.039063 -0.01608,-2.540587 -0.025565,-5.074726 -0.00586,-7.582031 -0.00238,-0.0089 -0.037071,-0.113245 -0.039063,-0.121094 -0.780997,-3.218687 -1.1739548,-4.783958 -1.5625,-7.125 C 4.2384709,13.837987 4.3399376,12.077652 4.6328125,10.613281 4.9266633,8.9536608 5.5100186,7.4899188 6.2910156,6.5136719 7.461533,4.9546052 8.9259405,4.2714206 9.4140625,4.0722656 10.955554,3.3400798 12.328492,3.2158324 13.453125,3.2382812 c 0.373902,0.0078 0.719829,0.029309 1.037109,0.056641 1.683436,0.097595 3.33611,0.4937345 4.88086,1.1699219 1.020725,0.4693971 2.928368,0.095578 4.880859,-0.2929688 0.488123,-0.099575 0.97672,-0.099609 1.464844,-0.099609 v -0.00195 c 1.464369,0 2.09593,0.00138 3.07217,0.2942468 0.546317,-0.3756712 0.531498,-0.54572 1.908299,-0.9739343 1.169545,-0.2938502 2.441878,-0.5839844 3.90625,-0.5839844 z"
       id="path2-3"
       inkscape:connector-curvature="0"
       sodipodi:nodetypes="sccccccscccscscccccccccccccccccccccccccccc" />
  </g>
  <g
     inkscape:groupmode="layer"
     id="layer3"
     inkscape:label="Layer 3"
     style="display:inline">
    <path
       d="m 33.577862,4.7522682 c -1.324301,0 -2.473793,0.261329 -3.531467,0.5270716 1.85402,0.7936973 3.003513,1.7657337 3.619753,2.2071669 1.414352,1.2351305 2.207167,2.4729139 3.62152,4.5043923 0.262211,0.441433 0.703646,1.058556 0.969388,2.027944 0.264861,0.882866 0.264861,1.589161 0.264861,2.296337 0,0.972918 -0.08828,1.765732 -0.178341,2.55943 -0.08652,0.620655 -0.08652,0.886397 -0.17304,1.062087 0,0.08917 0,0.175691 -0.08917,0.351382 0,0.441434 0,0.620654 0.08917,0.97292 0,0.351382 0.08652,0.706294 0.08652,1.324299 0.09005,1.147727 0.09005,1.941424 -0.08652,2.910813 v 0.354912 c -0.179222,0.792815 -0.354913,1.58916 -0.796346,2.293686 0.09005,0.179224 0.176572,0.264863 0.264859,0.441435 0.441432,-0.618007 0.79458,-1.23513 1.145961,-1.938775 1.061206,-1.944073 1.679213,-3.620636 2.120646,-4.855767 0.792815,-2.296337 1.234247,-3.976433 1.500873,-5.21068 0.616242,-2.648599 0.706295,-3.882848 0.441434,-5.2972 0,-0.441435 -0.176573,-1.23778 -0.618007,-2.030599 C 41.257037,7.4873899 39.757928,6.6928093 38.69849,6.1630893 37.992196,5.8099429 36.136409,4.8387886 33.577862,4.7522682 Z M 14.450555,5.1416125 C 13.433493,5.1213114 12.192179,5.2343131 10.798134,5.8964634 10.356701,6.0765688 9.0323984,6.6936926 7.9738417,8.1036304 7.2675479,8.9864966 6.7395942,10.310802 6.4738513,11.811676 c -0.2648607,1.3243 -0.3549128,2.916992 0.176573,5.917855 0.3513811,2.117116 0.7062936,3.531468 1.4125875,6.442279 0.090052,0.354912 0.6180068,1.944957 1.765733,5.476423 l 0.08652,0.175689 c 0.1801042,0.618006 0.7071752,1.942309 1.8557852,3.266608 0.792814,0.882868 1.500874,1.412587 2.120645,1.412587 h 0.173041 c 1.147727,0 1.944957,-0.882867 2.648601,-1.58916 0,-0.09005 1.679214,-2.117116 2.296337,-2.825173 -0.08917,-0.08829 -0.262212,-0.08829 -0.351381,-0.17834 -1.059439,-0.618006 -1.855785,-1.586511 -2.472909,-2.6486 -1.05944,-1.942308 -0.972921,-3.88373 -0.796346,-4.855768 l 0.08917,-1.497343 c -0.351384,-2.386388 -0.262214,-4.679192 0.179219,-6.97641 0.352265,-1.942308 0.793697,-3.882849 2.380207,-5.9152132 0.530603,-0.7062936 1.147729,-1.3243005 1.765734,-1.7657337 A 12.86425,12.86425 0 0 0 15.389034,5.1937012 c -0.286931,-0.024717 -0.60035,-0.045031 -0.938487,-0.052085 z m 11.091454,0.7548509 c -0.441433,0 -0.882867,0 -1.324301,0.090052 -1.765733,0.351381 -3.442296,1.3243006 -4.766598,2.9999811 -1.324298,1.6800995 -1.675681,3.2666105 -2.027943,5.1215145 -0.179222,0.707177 -0.179222,1.3243 -0.268392,2.031476 0.530602,-0.441435 1.23778,-0.972918 2.296335,-1.23778 0.618008,-0.176572 2.207169,-0.703643 3.531468,0.08917 0.441434,0.265741 1.059439,0.797228 1.676564,2.297217 1.3243,3.707159 0.0036,7.504369 -0.173042,7.855749 -0.08917,0.352265 -0.26486,0.618007 -0.354913,0.793698 -0.176573,0.441432 -0.351379,0.796344 -0.527954,1.503521 -0.08917,0.617125 -0.179221,1.147727 -0.179221,1.765735 0.265742,0 0.531485,0.08563 0.793696,0.262212 0.441434,0.441433 0.530603,1.062088 0.620656,1.3243 0.175691,1.413469 0.175691,3.179201 0.175691,4.944935 0,1.414353 0,2.738653 0.08652,3.621522 0.179222,2.030592 0.796346,3.441413 1.679214,4.148589 0.618006,0.531487 1.410821,0.527954 1.852255,0.618007 h 0.179221 c 1.3243,0 3.441415,-0.882867 4.235112,-2.118881 0.441433,-0.706293 0.620655,-1.324299 0.796347,-2.207167 0.09005,-0.529719 0.08652,-0.792814 0.176571,-1.3243 0,-0.26486 0.08828,-0.706293 0.08828,-1.234247 0,-0.441434 0.08652,-0.972037 0.176573,-1.592692 0.09005,-1.500874 0.351381,-3.263076 0.441434,-4.235113 0.09005,-1.148607 0.618006,-2.121529 1.05944,-2.738651 -0.618008,-0.08917 -1.236014,-0.617124 -1.587393,-1.499991 -0.530604,-0.972918 -0.620657,-1.237779 -0.709826,-1.679212 -0.08652,-0.352265 -0.262212,-0.793698 -0.882866,-2.117998 -1.324303,-2.999982 -1.497343,-3.882847 -1.497343,-4.590023 -0.08917,-0.972921 -0.179222,-2.293689 0.882866,-3.176556 1.586512,-1.413469 3.617988,-1.3243 4.676546,-0.972037 v -0.17922 C 36.491315,13.756629 36.139935,13.225141 35.874193,12.873761 34.549009,10.842284 33.842716,9.7828428 32.604938,8.7233989 A 12.643534,12.643534 0 0 0 28.811258,6.5162318 C 27.928398,6.2513761 26.866311,5.8955801 25.542009,5.8955801 Z m 9.759209,10.3533846 c -0.640961,-0.04415 -1.458495,0.06532 -2.165672,0.685986 -0.35138,0.352264 -0.35138,1.059441 -0.262212,1.676565 0,0.441434 0.08652,1.058558 1.410822,4.062068 0.618007,1.410823 0.792813,1.852255 0.882865,2.20717 0.09005,0.352263 0.176574,0.527953 0.706294,1.497339 0.09005,0.179222 0.176574,0.354913 0.353148,0.530603 0.174807,-0.264859 0.264859,-0.706293 0.35138,-1.413468 l 0.08917,-0.262211 c 0.176573,-0.793698 0.09005,-1.414353 0.09005,-2.472912 0,-0.531484 -0.09005,-0.882866 -0.09005,-1.147726 -0.08917,-0.441434 -0.08917,-0.794579 -0.08917,-1.324299 -0.176573,-0.266626 -0.176573,-0.353148 -0.08652,-0.531487 0,-0.176573 0.08652,-0.437902 0.176574,-0.969386 0.08828,-0.706295 0.178338,-1.324303 0.178338,-2.030595 -0.179222,-0.09005 -0.264859,-0.176573 -0.441432,-0.263094 0,0 -0.465273,-0.199529 -1.103585,-0.244553 z M 21.496712,16.59858 c -0.562384,-0.06622 -1.20776,0.116534 -1.604167,0.247202 -0.972038,0.266626 -1.586512,0.882867 -2.027946,1.236013 -0.264859,0.264861 -0.530602,0.529721 -0.796346,0.882866 0,0.616242 0.08652,1.237782 0.176574,1.854022 v 0.09005 l -0.176574,1.765734 c -0.176572,0.793698 -0.264858,2.293689 0.618007,3.79368 0.441433,0.882867 1.061206,1.590043 1.854022,2.031476 0.531485,0.35138 1.236013,0.618008 2.028827,0.796346 0,-0.620656 0.08917,-1.327832 0.179221,-1.944955 0.175691,-0.882867 0.351381,-1.3243 0.617125,-1.854903 a 2.6486002,2.6486002 0 0 1 0.354912,-0.703646 c 0.08652,-0.265744 1.320769,-3.621519 0.173043,-6.711554 -0.262212,-0.706292 -0.527955,-1.147727 -0.882867,-1.324299 A 1.2978141,1.2978141 0 0 0 21.496712,16.5977 Z m 12.953421,0.503233 c 0.23043,-0.01413 0.451146,0.0071 0.541199,0.09712 0.26486,0.174808 -0.09005,0.616241 -0.179223,0.706292 -0.08652,0.09005 -0.262211,0.264862 -0.527953,0.354913 -0.351383,0.08652 -0.618008,-0.179222 -0.706294,-0.179222 -0.09005,-0.08917 -0.353147,-0.351381 -0.263094,-0.617122 0.08652,-0.176575 0.176574,-0.176575 0.527955,-0.264861 a 2.5073416,2.5073416 0 0 1 0.60741,-0.09712 z m -13.27125,0.731014 c 0.296642,-0.0203 0.544728,0.0927 0.745138,0.158917 0.264859,0.08917 0.527954,0.179222 0.527954,0.354912 0.08917,0.26486 -0.173042,0.441434 -0.262212,0.527954 -0.265742,0.26486 -0.707175,0.268391 -0.707175,0.268391 -0.441434,0 -0.706293,-0.26486 -0.882866,-0.530602 -0.09005,-0.09005 -0.176574,-0.265743 -0.08652,-0.441433 0.08652,-0.176575 0.262213,-0.265744 0.352265,-0.265744 0.110352,-0.04414 0.213654,-0.06533 0.313418,-0.0724 z M 37.37419,29.382489 c -0.441436,0.618007 -1.059441,1.414352 -1.147727,2.472029 0,0.176573 0,0.266625 -0.09005,0.441432 0.706296,0.176573 1.327833,0.176573 1.944957,0.09005 1.41347,-0.17834 2.382857,-0.886397 2.558548,-1.061205 0.618006,-0.441435 1.414353,-1.324301 1.23513,-1.675682 -0.08652,-0.176573 -0.352263,-0.09005 -1.765733,0 -0.352263,0 -1.410822,0.26486 -2.117998,0.08917 h -0.175692 c -0.176574,-0.08917 -0.351382,-0.179219 -0.441434,-0.354911 z m -15.363647,1.765735 c -0.176575,0.264859 -0.437904,0.441432 -0.614475,0.618007 -0.706294,0.441431 -1.592692,0.796345 -2.475561,0.971152 -0.793695,0.266626 -1.23513,0.266626 -1.23513,0.531486 -0.08917,0.352264 0.793698,0.793697 1.23513,0.969387 1.503525,0.618008 3.003514,0.264861 3.269256,0.176575 0.175692,-0.09005 0.617124,-0.266627 1.058558,-0.531487 0,-0.969387 -0.08652,-1.852253 -0.176573,-2.559429 v -0.08917 h -0.08828 c -0.266625,0 -0.618006,0.0036 -0.972917,-0.08652 z"
       id="surface1-2"
       inkscape:connector-curvature="0"
       style="stroke-width:0.88286674" />
    <path
       d="m -98.141531,-28.332746 c 0.04201,3.103788 0.021,6.261251 0,9.418714 -0.02567,3.155129 -0.04667,6.314925 -0.0047,9.4187127 -0.04201,3.1014537 -0.021,6.2589157 0.0023,9.41637869 0.021,3.15979601 0.04434,6.31492501 0,9.41871301 6.291585,8.4058986 37.030755,8.4058986 43.322345,0 -0.0443,-3.103788 -0.021,-6.261251 0,-9.41871301 0.021,-3.15746299 0.0443,-6.31492499 0.002,-9.41637869 0.042,-3.1037877 0.0187,-6.2612507 -0.002,-9.4187127 -0.021,-3.157463 -0.0443,-6.314926 0,-9.418714 -14.52946,-11.299655 -41.700441,-3.722211 -43.320012,0 z m 40.276895,4.494659 c 0.005,1.173839 0.0117,1.925282 0.0187,3.103788 0.0187,2.949765 -0.014,6.704649 -0.0513,9.60074 0.0373,2.8984237 0.0163,5.8458554 -0.002,8.7956204 -0.0187,2.94976599 -0.0397,7.127044 0,10.025469 -4.72569,6.8750076 -32.15571,7.2763996 -37.14744,0.014 0.035,-2.898425 0.0163,-7.08970501 -0.002,-10.039471 -0.0187,-2.949765 -0.0373,-5.8971967 0,-8.7956204 -0.0373,-2.898425 0.035,-6.653308 0.0537,-9.60074 0.007,-1.178506 0.0163,-1.927616 0.0187,-3.103788 3.2438,2.597381 10.33351,3.971915 18.55505,3.971915 8.22154,0 15.31357,-1.374534 18.55738,-3.971915 z"
       style="clip-rule:evenodd;fill:#000000;fill-opacity:1;fill-rule:evenodd;stroke-width:2.33367515"
       id="path2"
       inkscape:connector-curvature="0" />
  </g>
</svg>
