<?xml version="1.0" encoding="UTF-8" standalone="no"?>
<svg
   xmlns:dc="http://purl.org/dc/elements/1.1/"
   xmlns:cc="http://creativecommons.org/ns#"
   xmlns:rdf="http://www.w3.org/1999/02/22-rdf-syntax-ns#"
   xmlns:svg="http://www.w3.org/2000/svg"
   xmlns="http://www.w3.org/2000/svg"
   xmlns:sodipodi="http://sodipodi.sourceforge.net/DTD/sodipodi-0.dtd"
   xmlns:inkscape="http://www.inkscape.org/namespaces/inkscape"
   width="896.9"
   height="1024"
   version="1.1"
   id="svg1424"
   sodipodi:docname="f-key.svg"
   inkscape:version="0.92.3 (2405546, 2018-03-11)">
  <metadata
     id="metadata1430">
    <rdf:RDF>
      <cc:Work
         rdf:about="">
        <dc:format>image/svg+xml</dc:format>
        <dc:type
           rdf:resource="http://purl.org/dc/dcmitype/StillImage" />
        <dc:title></dc:title>
      </cc:Work>
    </rdf:RDF>
  </metadata>
  <defs
     id="defs1428" />
  <sodipodi:namedview
     pagecolor="#ffffff"
     bordercolor="#666666"
     borderopacity="1"
     objecttolerance="10"
     gridtolerance="10"
     guidetolerance="10"
     inkscape:pageopacity="0"
     inkscape:pageshadow="2"
     inkscape:window-width="1440"
     inkscape:window-height="837"
     id="namedview1426"
     showgrid="false"
     inkscape:zoom="0.23046875"
     inkscape:cx="448.45001"
     inkscape:cy="512"
     inkscape:window-x="2872"
     inkscape:window-y="1016"
     inkscape:window-maximized="1"
     inkscape:current-layer="svg1424" />
  <g
     id="g1417"
     transform="rotate(-180,447.95,447.5)">
    <title
       id="title1414">background</title>
    <rect
       id="canvas_background"
       height="402"
       width="582"
       y="-1"
       x="-1"
       style="fill:none" />
  </g>
  <g
     id="g1422"
     transform="rotate(-180,447.95,447.5)">
    <title
       id="title1419">Layer 1</title>
    <path
       id="svg_1"
       d="m 640.9,63.9 c -141.4,0 -256,114.6 -256,256 0,19.6 2.2,38.6 6.4,56.9 L 0,768 v 64 l 64,64 h 128 l 64,-64 v -64 h 64 v -64 h 64 v -64 h 128 l 70.8,-70.8 c 18.7,4.3 38.1,6.6 58.1,6.6 141.4,0 256,-114.6 256,-256 0,-141.4 -114.7,-255.9 -256,-255.9 z M 384,512 64,832 V 768 L 384,448 Z M 704,320 c -35.3,0 -64,-28.7 -64,-64 0,-35.3 28.7,-64 64,-64 35.3,0 64,28.7 64,64 0,35.3 -28.7,64 -64,64 z"
       inkscape:connector-curvature="0"
       style="fill:#656565" />
  </g>
  <path
     inkscape:connector-curvature="0"
     d="m 829.31377,772.36901 -65.30909,58.7782 c 0,0 -86.49408,77.8446 -165.44972,-8.7079 -6.82102,-7.5789 -12.12745,-15.848 -16.76539,-24.3143 l 46.73853,-42.0647 c 2.03666,9.7879 6.39036,19.2217 13.56558,27.1941 39.18546,43.5394 82.72486,4.354 82.72486,4.354 l 65.3091,-58.7782 c 0,0 43.53939,-39.1855 4.35393,-82.7249 -39.18545,-43.5394 -82.72417,-4.3545 -82.72417,-4.3545 0,0 -19.63525,-21.7314 -60.95516,-23.9467 l 21.7697,-19.5927 c 0,0 87.07879,-78.3709 165.44971,8.7079 78.37095,87.0788 -8.70788,165.4497 -8.70788,165.4497 z m -83.37522,-43.1718 -46.74975,42.0748 c -2.03666,-9.7879 -6.37981,-19.2312 -13.55504,-27.2036 -39.18545,-43.5394 -82.72485,-4.354 -82.72485,-4.354 l -65.30909,58.7782 c 0,0 -43.5394,39.1855 -4.35395,82.7249 39.18545,43.5394 82.72485,4.3539 82.72485,4.3539 0,0 18.53197,23.2631 61.53988,23.4204 l -22.35442,20.119 c 0,0 -87.07879,78.37089 -165.4497,-8.7078 -78.37092,-87.0788 8.70788,-165.4498 8.70788,-165.4498 l 65.30909,-58.7782 c 0,0 87.07879,-78.3709 165.44971,8.7079 6.82102,7.5789 12.1264,15.8681 16.76539,24.3143 z"
     id="path2"
     style="fill:#656565;fill-opacity:1;stroke:#c5c5c5;stroke-width:0.45762712;stroke-opacity:1" />
</svg>
