<svg width="1792" height="1792" xmlns="http://www.w3.org/2000/svg">

 <g>
  <title>background</title>
  <rect fill="none" id="canvas_background" height="402" width="582" y="-1" x="-1"/>
 </g>
 <g>
  <title>Layer 1</title>
  <path fill="#656565" id="svg_1" d="m128,1408l1024,0l0,-128l-1024,0l0,128zm0,-512l1024,0l0,-128l-1024,0l0,128zm1568,448q0,-40 -28,-68t-68,-28t-68,28t-28,68t28,68t68,28t68,-28t28,-68zm-1568,-960l1024,0l0,-128l-1024,0l0,128zm1568,448q0,-40 -28,-68t-68,-28t-68,28t-28,68t28,68t68,28t68,-28t28,-68zm0,-512q0,-40 -28,-68t-68,-28t-68,28t-28,68t28,68t68,28t68,-28t28,-68zm96,832l0,384l-1792,0l0,-384l1792,0zm0,-512l0,384l-1792,0l0,-384l1792,0zm0,-512l0,384l-1792,0l0,-384l1792,0z"/>
 </g>
</svg>